<svg width="20" height="14" viewBox="0 0 20 14" fill="none" xmlns="http://www.w3.org/2000/svg">
<path d="M8.74109 12.3953L8.82109 13.7553C7.59443 13.8353 5.62109 13.8753 2.90109 13.8753C2.08776 13.8753 1.44109 13.662 0.961094 13.2353C0.494427 12.7953 0.254427 12.2087 0.241094 11.4753V2.43535C0.254427 1.70201 0.494427 1.12201 0.961094 0.695346C1.44109 0.255346 2.08776 0.0353458 2.90109 0.0353458C5.62109 0.0353458 7.59443 0.0753457 8.82109 0.155345L8.74109 1.53535H3.20109C2.40109 1.53535 2.00109 1.97535 2.00109 2.85535V5.85535H7.96109V7.27535H2.00109V11.0553C2.00109 11.9487 2.40109 12.3953 3.20109 12.3953H8.74109ZM12.8125 4.11535L12.9325 5.65535C14.5058 4.46868 15.9592 3.87535 17.2925 3.87535C19.0525 3.87535 19.9325 4.76868 19.9325 6.55535V13.8553H18.2325V7.03535C18.2325 6.39535 18.1258 5.94868 17.9125 5.69535C17.6992 5.44201 17.3392 5.31535 16.8325 5.31535C16.2992 5.31535 15.7592 5.43535 15.2125 5.67535C14.6792 5.91535 13.9658 6.30868 13.0725 6.85535V13.8553H11.3725V4.11535H12.8125Z" fill="#E67967"/>
</svg>
