<svg width="111" height="47" viewBox="0 0 111 47" fill="none" xmlns="http://www.w3.org/2000/svg">
<rect width="110.443" height="45.7465" fill="black" fill-opacity="0" transform="translate(0.205078 0.651611)"/>
<path d="M108.355 29.8617L107.872 30.3446C107.269 31.0688 106.424 31.6723 105.579 31.9137H105.458C104.613 32.2758 103.889 32.5172 102.803 32.5172C101.354 32.5172 100.147 32.1551 98.9402 31.1895C97.8539 30.3446 97.3711 29.3789 97.3711 27.9305V13.9289L106.182 13.9289V11.0321L97.3711 11.0321V0.651611L94.3535 0.651611V28.1719C94.3535 30.3446 95.1984 32.2758 96.7676 33.7242V33.7242C98.4574 35.1727 100.389 35.7762 102.682 35.7762C103.768 35.7762 105.217 35.4141 106.424 34.9313C107.631 34.4485 108.717 33.7242 109.924 33L110.648 32.6379L108.355 29.8617Z" fill="#FB6E52"/>
<path d="M81.4383 10.67V26.3614C81.4383 28.1719 80.7141 29.7411 79.3863 30.9481C78.0586 32.0344 76.3687 32.6379 74.4375 32.6379C72.5062 32.6379 70.9371 32.1551 69.8508 31.1895V31.1895C68.523 30.1032 67.7988 28.534 67.7988 26.4821V10.67H64.7812V27.0856C64.7812 29.6204 65.7469 31.6723 67.9195 33.4829C69.7301 34.9313 72.0234 35.6555 74.6789 35.6555C77.2137 35.6555 79.507 34.9313 81.4383 33.2415C83.4902 31.5516 84.4558 29.2583 84.4558 26.7235V10.67L81.4383 10.67Z" fill="#FEE900"/>
<path fill-rule="evenodd" clip-rule="evenodd" d="M43.2959 10.3079C46.1934 10.3079 48.9688 11.5149 51.0215 13.5668C53.6768 16.1016 54.8838 19.1192 54.8838 22.861C54.8838 26.3614 53.7969 29.6204 51.9863 31.9137C49.8145 34.6899 46.7969 36.0176 43.0547 36.0176C41.2441 36.0176 39.5547 35.6555 38.2266 34.9313C36.6572 33.9656 35.4502 32.7586 34.6055 31.4309V46.3981H31.5879L31.5879 22.6196C31.5879 19.7227 32.4326 16.9465 34.3643 14.5325C36.5371 11.7563 39.5547 10.3079 43.2959 10.3079ZM37.0195 16.343C35.4502 18.1536 34.6055 20.447 34.6055 23.2231H34.4844V24.4301C34.4844 25.275 34.7256 26.12 34.9668 26.9649C35.5703 28.6547 36.6572 30.1031 37.9844 31.1895C39.5537 32.2758 41.2441 32.8793 43.0547 32.8793C46.4463 32.6533 47.7197 31.5802 49.0576 30.4534L49.3311 30.2239C51.0205 28.1719 51.8652 25.8785 51.8652 23.2231C51.8652 20.3262 51.0205 18.1536 49.4512 16.343C47.8828 14.6532 45.8301 13.6876 43.2959 13.6876C40.6406 13.6876 38.709 14.4118 37.0195 16.343Z" fill="#92D413"/>
<path d="M20.2418 11.1528L12.6375 32.0344V32.0344C12.5168 32.7586 12.1547 32.7586 11.9133 32.7586C11.7926 32.7586 11.5512 32.6379 11.1891 31.9137L3.22265 11.1528H0.205078L9.1371 33.3621C9.37851 34.0863 9.74062 34.5692 10.2234 34.8106C10.8269 35.1727 11.3098 35.2934 11.9133 35.2934C12.5168 35.2934 13.1203 35.1727 13.7238 34.8106C14.2066 34.4485 14.5687 33.9656 14.8101 33.3621L23.2594 11.1528H20.2418Z" fill="#1A8894"/>
</svg>
