<svg width="355" height="370" viewBox="0 0 355 370" fill="none" xmlns="http://www.w3.org/2000/svg">
<rect width="284.285" height="244.868" fill="black" fill-opacity="0" transform="translate(142.451 369.424) rotate(-120)"/>
<path d="M85.7862 247.428H83.9062L82.6862 243.108C82.5128 242.588 82.2795 242.221 81.9862 242.008C81.6928 241.781 81.3128 241.668 80.8462 241.668C80.3795 241.668 79.8062 241.668 79.1262 241.668C78.4595 241.654 78.0195 241.648 77.8062 241.648V247.428H76.0662V233.628C77.1862 233.508 78.7728 233.448 80.8262 233.448C82.4662 233.448 83.6195 233.734 84.2862 234.308C84.9528 234.868 85.2862 235.908 85.2862 237.428C85.2862 238.561 85.0862 239.408 84.6862 239.968C84.2995 240.528 83.6528 240.868 82.7462 240.988V241.088C83.1195 241.181 83.4595 241.401 83.7662 241.748C84.0728 242.081 84.2995 242.521 84.4462 243.068L85.7862 247.428ZM77.8062 240.148H80.7862C81.8262 240.134 82.5395 239.948 82.9262 239.588C83.3128 239.228 83.5062 238.541 83.5062 237.528C83.5062 236.528 83.3128 235.854 82.9262 235.508C82.5395 235.148 81.8262 234.968 80.7862 234.968C79.3195 234.968 78.3262 234.974 77.8062 234.988V240.148ZM96.5295 237.688V247.428H95.1695L95.0495 246.028C93.5828 247.134 92.1828 247.688 90.8495 247.688C89.0761 247.688 88.1895 246.794 88.1895 245.008V237.688H89.8895V244.528C89.8761 245.141 89.9895 245.574 90.2295 245.828C90.4695 246.081 90.8695 246.208 91.4295 246.208C91.9228 246.208 92.4228 246.101 92.9295 245.888C93.4361 245.661 94.0695 245.301 94.8295 244.808V237.688H96.5295Z" fill="#489ABE"/>
<path d="M329.741 248.395L329.821 249.755C328.594 249.835 326.621 249.875 323.901 249.875C323.088 249.875 322.441 249.662 321.961 249.235C321.494 248.795 321.254 248.209 321.241 247.475V238.435C321.254 237.702 321.494 237.122 321.961 236.695C322.441 236.255 323.088 236.035 323.901 236.035C326.621 236.035 328.594 236.075 329.821 236.155L329.741 237.535H324.201C323.401 237.535 323.001 237.975 323.001 238.855V241.855H328.961V243.275H323.001V247.055C323.001 247.949 323.401 248.395 324.201 248.395H329.741ZM333.813 240.115L333.933 241.655C335.506 240.469 336.959 239.875 338.293 239.875C340.053 239.875 340.933 240.769 340.933 242.555V249.855H339.233V243.035C339.233 242.395 339.126 241.949 338.913 241.695C338.699 241.442 338.339 241.315 337.833 241.315C337.299 241.315 336.759 241.435 336.213 241.675C335.679 241.915 334.966 242.309 334.073 242.855V249.855H332.373V240.115H333.813Z" fill="#E67967"/>
<path d="M205.301 17.8169V26.3369C205.301 28.3503 204.928 29.7769 204.181 30.6169C203.434 31.4569 202.161 31.8769 200.361 31.8769C198.494 31.8769 197.174 31.4569 196.401 30.6169C195.641 29.7769 195.261 28.3503 195.261 26.3369V17.8169H197.021V26.3369C197.021 27.8169 197.261 28.8503 197.741 29.4369C198.221 30.0103 199.068 30.2969 200.281 30.2969C201.481 30.2969 202.321 30.0103 202.801 29.4369C203.294 28.8503 203.541 27.8169 203.541 26.3369V17.8169H205.301ZM208.561 23.3369L208.401 22.0769C210.188 21.7836 211.755 21.6369 213.101 21.6369C214.235 21.6369 215.075 21.8769 215.621 22.3569C216.168 22.8236 216.441 23.6236 216.441 24.7569V31.6169H215.101L214.901 30.0169C214.435 30.4836 213.848 30.8969 213.141 31.2569C212.448 31.6169 211.695 31.7969 210.881 31.7969C209.988 31.7969 209.275 31.5636 208.741 31.0969C208.221 30.6169 207.961 29.9436 207.961 29.0769V28.0169C207.961 27.2569 208.195 26.6703 208.661 26.2569C209.141 25.8303 209.808 25.6169 210.661 25.6169H214.721V24.7569C214.721 24.1436 214.581 23.7103 214.301 23.4569C214.021 23.2036 213.501 23.0769 212.741 23.0769C211.781 23.0769 210.388 23.1636 208.561 23.3369ZM209.701 28.2569V28.8769C209.701 29.3836 209.821 29.7569 210.061 29.9969C210.301 30.2236 210.688 30.3369 211.221 30.3369C211.728 30.3503 212.301 30.2303 212.941 29.9769C213.595 29.7236 214.188 29.3569 214.721 28.8769V26.9169H210.961C210.508 26.9303 210.181 27.0503 209.981 27.2769C209.795 27.5036 209.701 27.8303 209.701 28.2569Z" fill="#A2548E"/>
</svg>
