<svg width="21" height="15" viewBox="0 0 21 15" fill="none" xmlns="http://www.w3.org/2000/svg">
<path d="M9.78617 14.4276H7.90617L6.68617 10.1076C6.51284 9.58761 6.27951 9.22095 5.98617 9.00761C5.69284 8.78095 5.31284 8.66761 4.84617 8.66761C4.37951 8.66761 3.80617 8.66761 3.12617 8.66761C2.45951 8.65428 2.01951 8.64761 1.80617 8.64761V14.4276H0.066172V0.627611C1.18617 0.507611 2.77284 0.447611 4.82617 0.447611C6.46617 0.447611 7.61951 0.734278 8.28617 1.30761C8.95284 1.86761 9.28617 2.90761 9.28617 4.42761C9.28617 5.56095 9.08617 6.40761 8.68617 6.96761C8.29951 7.52761 7.65284 7.86761 6.74617 7.98761V8.08761C7.11951 8.18095 7.45951 8.40095 7.76617 8.74761C8.07284 9.08095 8.29951 9.52095 8.44617 10.0676L9.78617 14.4276ZM1.80617 7.14761H4.78617C5.82617 7.13428 6.53951 6.94761 6.92617 6.58761C7.31284 6.22761 7.50617 5.54095 7.50617 4.52761C7.50617 3.52761 7.31284 2.85428 6.92617 2.50761C6.53951 2.14761 5.82617 1.96761 4.78617 1.96761C3.31951 1.96761 2.32617 1.97428 1.80617 1.98761V7.14761ZM20.5295 4.68761V14.4276H19.1695L19.0495 13.0276C17.5828 14.1343 16.1828 14.6876 14.8495 14.6876C13.0761 14.6876 12.1895 13.7943 12.1895 12.0076V4.68761H13.8895V11.5276C13.8761 12.1409 13.9895 12.5743 14.2295 12.8276C14.4695 13.0809 14.8695 13.2076 15.4295 13.2076C15.9228 13.2076 16.4228 13.1009 16.9295 12.8876C17.4361 12.6609 18.0695 12.3009 18.8295 11.8076V4.68761H20.5295Z" fill="#489ABE"/>
</svg>
