<svg width="42" height="42" viewBox="0 0 42 42" fill="none" xmlns="http://www.w3.org/2000/svg">
<rect width="40.4102" height="40.4102" fill="black" fill-opacity="0" transform="translate(1 0.5)"/>
<path fill-rule="evenodd" clip-rule="evenodd" d="M21.2051 40.9102C32.364 40.9102 41.4102 31.864 41.4102 20.7051C41.4102 9.54612 32.364 0.5 21.2051 0.5C10.0461 0.5 1 9.54612 1 20.7051C1 31.864 10.0461 40.9102 21.2051 40.9102Z" stroke="#777777"/>
<path d="M28.1645 30.6503H14.52V27.9433L20.9594 21.08C21.8435 20.1138 22.4952 19.2707 22.9145 18.5507C23.3429 17.8306 23.5571 17.147 23.5571 16.4999C23.5571 15.6158 23.3338 14.9231 22.8872 14.4218C22.4405 13.9114 21.8025 13.6562 20.9731 13.6562C20.0799 13.6562 19.3735 13.9661 18.854 14.5858C18.3435 15.1965 18.0883 16.0032 18.0883 17.0058H14.1235C14.1235 15.7935 14.4106 14.6861 14.9848 13.6835C15.5681 12.6809 16.3885 11.897 17.4458 11.3319C18.503 10.7577 19.7016 10.4706 21.0415 10.4706C23.0922 10.4706 24.6827 10.9628 25.8129 11.9472C26.9523 12.9315 27.5219 14.3215 27.5219 16.1171C27.5219 17.1015 27.2667 18.1041 26.7563 19.1249C26.2459 20.1457 25.3709 21.3352 24.1313 22.6933L19.6059 27.4648H28.1645V30.6503Z" fill="#777777"/>
</svg>
