<svg width="42" height="42" viewBox="0 0 42 42" fill="none" xmlns="http://www.w3.org/2000/svg">
<rect width="40.4102" height="40.4102" fill="black" fill-opacity="0" transform="translate(1 0.674805)"/>
<path fill-rule="evenodd" clip-rule="evenodd" d="M21.2051 41.085C32.364 41.085 41.4102 32.0388 41.4102 20.8799C41.4102 9.72093 32.364 0.674805 21.2051 0.674805C10.0461 0.674805 1 9.72093 1 20.8799C1 32.0388 10.0461 41.085 21.2051 41.085Z" stroke="#777777"/>
<path d="M18.5395 19.122H20.645C21.6476 19.122 22.3904 18.8714 22.8735 18.3701C23.3566 17.8688 23.5981 17.2034 23.5981 16.374C23.5981 15.5719 23.3566 14.9475 22.8735 14.5009C22.3995 14.0543 21.7433 13.831 20.9047 13.831C20.1482 13.831 19.5148 14.0406 19.0043 14.4599C18.4939 14.8701 18.2387 15.4078 18.2387 16.0732H14.2875C14.2875 15.0341 14.5655 14.1044 15.1215 13.2841C15.6866 12.4547 16.4705 11.8076 17.4731 11.3427C18.4848 10.8779 19.5968 10.6454 20.809 10.6454C22.9145 10.6454 24.5642 11.1513 25.7583 12.163C26.9523 13.1656 27.5493 14.551 27.5493 16.3193C27.5493 17.2307 27.2713 18.0693 26.7153 18.8349C26.1593 19.6005 25.4301 20.1884 24.5278 20.5986C25.6489 20.9996 26.4829 21.6012 27.0297 22.4033C27.5857 23.2053 27.8637 24.1533 27.8637 25.247C27.8637 27.0152 27.2166 28.4326 25.9223 29.499C24.6372 30.5654 22.9327 31.0986 20.809 31.0986C18.8221 31.0986 17.1951 30.5745 15.9282 29.5263C14.6704 28.4781 14.0415 27.0927 14.0415 25.3701H17.9926C17.9926 26.1175 18.2706 26.7281 18.8266 27.2021C19.3917 27.676 20.0844 27.913 20.9047 27.913C21.8435 27.913 22.5773 27.6669 23.1059 27.1747C23.6437 26.6734 23.9125 26.0126 23.9125 25.1923C23.9125 23.2053 22.8188 22.2119 20.6313 22.2119H18.5395V19.122Z" fill="#777777"/>
</svg>
