<svg width="22" height="15" viewBox="0 0 22 15" fill="none" xmlns="http://www.w3.org/2000/svg">
<path d="M10.3011 0.816942V9.33694C10.3011 11.3503 9.92776 12.7769 9.18109 13.6169C8.43443 14.4569 7.16109 14.8769 5.36109 14.8769C3.49443 14.8769 2.17443 14.4569 1.40109 13.6169C0.641094 12.7769 0.261094 11.3503 0.261094 9.33694V0.816942H2.02109V9.33694C2.02109 10.8169 2.26109 11.8503 2.74109 12.4369C3.22109 13.0103 4.06776 13.2969 5.28109 13.2969C6.48109 13.2969 7.32109 13.0103 7.80109 12.4369C8.29443 11.8503 8.54109 10.8169 8.54109 9.33694V0.816942H10.3011ZM13.5614 6.33694L13.4014 5.07694C15.1881 4.78361 16.7547 4.63694 18.1014 4.63694C19.2347 4.63694 20.0747 4.87694 20.6214 5.35694C21.1681 5.82361 21.4414 6.62361 21.4414 7.75694V14.6169H20.1014L19.9014 13.0169C19.4347 13.4836 18.8481 13.8969 18.1414 14.2569C17.4481 14.6169 16.6947 14.7969 15.8814 14.7969C14.9881 14.7969 14.2747 14.5636 13.7414 14.0969C13.2214 13.6169 12.9614 12.9436 12.9614 12.0769V11.0169C12.9614 10.2569 13.1947 9.67028 13.6614 9.25694C14.1414 8.83028 14.8081 8.61694 15.6614 8.61694H19.7214V7.75694C19.7214 7.14361 19.5814 6.71028 19.3014 6.45694C19.0214 6.20361 18.5014 6.07694 17.7414 6.07694C16.7814 6.07694 15.3881 6.16361 13.5614 6.33694ZM14.7014 11.2569V11.8769C14.7014 12.3836 14.8214 12.7569 15.0614 12.9969C15.3014 13.2236 15.6881 13.3369 16.2214 13.3369C16.7281 13.3503 17.3014 13.2303 17.9414 12.9769C18.5947 12.7236 19.1881 12.3569 19.7214 11.8769V9.91694H15.9614C15.5081 9.93028 15.1814 10.0503 14.9814 10.2769C14.7947 10.5036 14.7014 10.8303 14.7014 11.2569Z" fill="#A2548E"/>
</svg>
