<svg width="457" height="464" viewBox="0 0 457 464" fill="none" xmlns="http://www.w3.org/2000/svg">
<rect width="456.5" height="463.005" fill="black" fill-opacity="0" transform="translate(457 463.005) rotate(-180)"/>
<path opacity="0.0615942" fill-rule="evenodd" clip-rule="evenodd" d="M351 216C292.458 216 245 263.458 245 322C245 380.542 292.458 428 351 428C409.542 428 457 380.542 457 322C457 263.458 409.542 216 351 216Z" fill="#E67967"/>
<path opacity="0.0615942" fill-rule="evenodd" clip-rule="evenodd" d="M106.5 213C47.9578 213 0.5 260.458 0.5 319C0.5 377.542 47.9578 425 106.5 425C165.042 425 212.5 377.542 212.5 319C212.5 260.458 165.042 213 106.5 213Z" fill="#489ABE"/>
<path opacity="0.0615942" fill-rule="evenodd" clip-rule="evenodd" d="M224.5 0C165.958 0 118.5 47.4578 118.5 106C118.5 164.542 165.958 212 224.5 212C283.042 212 330.5 164.542 330.5 106C330.5 47.4578 283.042 0 224.5 0Z" fill="#A2548E"/>
<path fill-rule="evenodd" clip-rule="evenodd" d="M230.5 94C147.933 94 81 160.933 81 243.5C81 326.067 147.933 393 230.5 393C313.067 393 380 326.067 380 243.5C380 160.933 313.067 94 230.5 94Z" stroke="url(#paint0_linear)" stroke-dasharray="2 2"/>
<rect width="381.965" height="396.867" fill="black" fill-opacity="0" transform="translate(386.858 463.005) rotate(-180)"/>
<rect width="305.43" height="264.715" fill="black" fill-opacity="0" transform="translate(157.608 463.005) rotate(-120)"/>
<path fill-rule="evenodd" clip-rule="evenodd" d="M373.501 307.512C366.124 294.734 349.785 290.356 337.008 297.733C324.23 305.111 319.852 321.449 327.229 334.227C334.607 347.004 350.945 351.382 363.723 344.005C376.5 336.628 380.878 320.289 373.501 307.512Z" fill="white" stroke="#E67965" stroke-width="2"/>
<path d="M336.127 296.207L286.582 210.393L237.667 125.669" stroke="url(#paint1_linear)" stroke-linecap="square"/>
<path d="M322.764 318.289L123.863 317.465" stroke="url(#paint2_linear)" stroke-linecap="square"/>
<path d="M214.026 127.956L114.462 301.183" stroke="url(#paint3_linear)" stroke-linecap="square"/>
<path fill-rule="evenodd" clip-rule="evenodd" d="M247.501 89.2734C240.124 76.4959 223.785 72.118 211.008 79.4951C198.23 86.8722 193.852 103.211 201.229 115.988C208.607 128.766 224.945 133.144 237.723 125.767C250.5 118.389 254.878 102.051 247.501 89.2734Z" fill="white" stroke="#A2508D" stroke-width="2"/>
<path fill-rule="evenodd" clip-rule="evenodd" d="M128.022 304.901C120.645 292.124 104.307 287.746 91.5293 295.123C78.7518 302.5 74.3739 318.839 81.751 331.616C89.1281 344.394 105.467 348.771 118.244 341.394C131.022 334.017 135.4 317.679 128.022 304.901Z" fill="white" stroke="#4899BE" stroke-width="2"/>
<defs>
<linearGradient id="paint0_linear" x1="454.293" y1="317.8" x2="363.995" y2="55.1172" gradientUnits="userSpaceOnUse">
<stop stop-color="#E67967"/>
<stop offset="0.454875" stop-color="#489ABE"/>
<stop offset="1" stop-color="#A2548E"/>
</linearGradient>
<linearGradient id="paint1_linear" x1="237.234" y1="125.919" x2="335.694" y2="296.457" gradientUnits="userSpaceOnUse">
<stop stop-color="#A2548E"/>
<stop offset="1" stop-color="#E67967"/>
</linearGradient>
<linearGradient id="paint2_linear" x1="372.132" y1="231.957" x2="221.889" y2="146.042" gradientUnits="userSpaceOnUse">
<stop stop-color="#E67967"/>
<stop offset="1" stop-color="#489ABE"/>
</linearGradient>
<linearGradient id="paint3_linear" x1="313.927" y1="128.15" x2="313.59" y2="301.57" gradientUnits="userSpaceOnUse">
<stop stop-color="#A2548E"/>
<stop offset="1" stop-color="#489ABE"/>
</linearGradient>
</defs>
</svg>
