<svg width="457" height="464" viewBox="0 0 457 464" fill="none" xmlns="http://www.w3.org/2000/svg">
<rect width="456.5" height="463.005" fill="black" fill-opacity="0" transform="translate(457 463.005) rotate(-180)"/>
<path opacity="0.0615942" fill-rule="evenodd" clip-rule="evenodd" d="M351 216C292.458 216 245 263.458 245 322C245 380.542 292.458 428 351 428C409.542 428 457 380.542 457 322C457 263.458 409.542 216 351 216Z" fill="#E67967"/>
<path opacity="0.0615942" fill-rule="evenodd" clip-rule="evenodd" d="M106.5 213C47.9578 213 0.5 260.458 0.5 319C0.5 377.542 47.9578 425 106.5 425C165.042 425 212.5 377.542 212.5 319C212.5 260.458 165.042 213 106.5 213Z" fill="#489ABE"/>
<path opacity="0.0615942" fill-rule="evenodd" clip-rule="evenodd" d="M224.5 0C165.958 0 118.5 47.4578 118.5 106C118.5 164.542 165.958 212 224.5 212C283.042 212 330.5 164.542 330.5 106C330.5 47.4578 283.042 0 224.5 0Z" fill="#A2548E"/>
<path fill-rule="evenodd" clip-rule="evenodd" d="M230.5 94C147.933 94 81 160.933 81 243.5C81 326.067 147.933 393 230.5 393C313.067 393 380 326.067 380 243.5C380 160.933 313.067 94 230.5 94Z" stroke="url(#paint0_linear)" stroke-dasharray="2 2"/>
<rect width="381.965" height="396.867" fill="black" fill-opacity="0" transform="translate(386.858 463.005) rotate(-180)"/>
<rect width="305.43" height="264.715" fill="black" fill-opacity="0" transform="translate(157.608 463.005) rotate(-120)"/>
<path fill-rule="evenodd" clip-rule="evenodd" d="M373.501 307.512C366.124 294.734 349.785 290.356 337.008 297.733C324.23 305.111 319.852 321.449 327.229 334.227C334.607 347.004 350.945 351.382 363.723 344.005C376.5 336.628 380.878 320.289 373.501 307.512Z" fill="white" stroke="#E67965" stroke-width="2"/>
<path d="M336.127 296.207L286.582 210.393L237.667 125.669" stroke="url(#paint1_linear)" stroke-linecap="square"/>
<path d="M322.764 318.289L123.863 317.465" stroke="url(#paint2_linear)" stroke-linecap="square"/>
<path d="M214.026 127.956L114.462 301.183" stroke="url(#paint3_linear)" stroke-linecap="square"/>
<path fill-rule="evenodd" clip-rule="evenodd" d="M247.501 89.2734C240.124 76.4959 223.785 72.118 211.008 79.4951C198.23 86.8722 193.852 103.211 201.229 115.988C208.607 128.766 224.945 133.144 237.723 125.767C250.5 118.389 254.878 102.051 247.501 89.2734Z" fill="white" stroke="#A2508D" stroke-width="2"/>
<path fill-rule="evenodd" clip-rule="evenodd" d="M128.022 304.901C120.645 292.124 104.307 287.746 91.5293 295.123C78.7518 302.5 74.3739 318.839 81.751 331.616C89.1281 344.394 105.467 348.771 118.244 341.394C131.022 334.017 135.4 317.679 128.022 304.901Z" fill="white" stroke="#4899BE" stroke-width="2"/>
<rect width="112" height="47" fill="black" fill-opacity="0" transform="translate(170.602 219.048)"/>
<path d="M279.355 248.862L278.872 249.345C278.269 250.069 277.424 250.672 276.579 250.914H276.458C275.613 251.276 274.889 251.517 273.803 251.517C272.354 251.517 271.147 251.155 269.94 250.189C268.854 249.345 268.371 248.379 268.371 246.931V232.929H277.182V230.032H268.371V219.652H265.354V247.172C265.354 249.345 266.198 251.276 267.768 252.724V252.724C269.457 254.173 271.389 254.776 273.682 254.776C274.768 254.776 276.217 254.414 277.424 253.931C278.631 253.448 279.717 252.724 280.924 252L281.648 251.638L279.355 248.862Z" fill="#FB6E52"/>
<path d="M252.438 229.67V245.361C252.438 247.172 251.714 248.741 250.386 249.948C249.059 251.034 247.369 251.638 245.437 251.638C243.506 251.638 241.937 251.155 240.851 250.19V250.19C239.523 249.103 238.799 247.534 238.799 245.482V229.67H235.781V246.086C235.781 248.62 236.747 250.672 238.92 252.483C240.73 253.931 243.023 254.656 245.679 254.656C248.214 254.656 250.507 253.931 252.438 252.241C254.49 250.552 255.456 248.258 255.456 245.723V229.67H252.438Z" fill="#FEE900"/>
<path fill-rule="evenodd" clip-rule="evenodd" d="M214.296 229.308C217.193 229.308 219.969 230.515 222.021 232.567C224.677 235.102 225.884 238.119 225.884 241.861C225.884 245.361 224.797 248.62 222.986 250.914C220.814 253.69 217.797 255.018 214.055 255.018C212.244 255.018 210.555 254.656 209.227 253.931C207.657 252.966 206.45 251.759 205.605 250.431V265.398H202.588V241.62C202.588 238.723 203.433 235.947 205.364 233.532C207.537 230.756 210.555 229.308 214.296 229.308ZM208.02 235.343C206.45 237.154 205.605 239.447 205.605 242.223H205.484V243.43C205.484 244.275 205.726 245.12 205.967 245.965C206.57 247.655 207.657 249.103 208.984 250.19C210.554 251.276 212.244 251.879 214.055 251.879C217.446 251.653 218.72 250.58 220.058 249.453L220.331 249.224C222.021 247.172 222.865 244.879 222.865 242.223C222.865 239.326 222.021 237.154 220.451 235.343C218.883 233.653 216.83 232.688 214.296 232.688C211.641 232.688 209.709 233.412 208.02 235.343Z" fill="#92D413"/>
<path d="M191.242 230.153L183.637 251.034V251.034C183.517 251.759 183.155 251.759 182.913 251.759C182.793 251.759 182.551 251.638 182.189 250.914L174.223 230.153H171.205L180.137 252.362C180.379 253.086 180.741 253.569 181.223 253.811C181.827 254.173 182.31 254.293 182.913 254.293C183.517 254.293 184.12 254.173 184.724 253.811C185.207 253.448 185.569 252.966 185.81 252.362L194.259 230.153H191.242Z" fill="#1A8894"/>
<defs>
<linearGradient id="paint0_linear" x1="454.293" y1="317.8" x2="363.995" y2="55.1172" gradientUnits="userSpaceOnUse">
<stop stop-color="#E67967"/>
<stop offset="0.454875" stop-color="#489ABE"/>
<stop offset="1" stop-color="#A2548E"/>
</linearGradient>
<linearGradient id="paint1_linear" x1="237.234" y1="125.919" x2="335.694" y2="296.457" gradientUnits="userSpaceOnUse">
<stop stop-color="#A2548E"/>
<stop offset="1" stop-color="#E67967"/>
</linearGradient>
<linearGradient id="paint2_linear" x1="372.132" y1="231.957" x2="221.889" y2="146.042" gradientUnits="userSpaceOnUse">
<stop stop-color="#E67967"/>
<stop offset="1" stop-color="#489ABE"/>
</linearGradient>
<linearGradient id="paint3_linear" x1="313.927" y1="128.15" x2="313.59" y2="301.57" gradientUnits="userSpaceOnUse">
<stop stop-color="#A2548E"/>
<stop offset="1" stop-color="#489ABE"/>
</linearGradient>
</defs>
</svg>
